<svg width="28" height="28" viewBox="0 0 28 28" fill="none" xmlns="http://www.w3.org/2000/svg">
<g id="CaretLeft">
<path id="Vector" d="M18.1193 22.1309C18.2006 22.2122 18.265 22.3087 18.309 22.415C18.353 22.5212 18.3757 22.635 18.3757 22.75C18.3757 22.865 18.353 22.9788 18.309 23.085C18.265 23.1913 18.2006 23.2878 18.1193 23.3691C18.038 23.4504 17.9415 23.5148 17.8352 23.5588C17.729 23.6028 17.6152 23.6255 17.5002 23.6255C17.3852 23.6255 17.2714 23.6028 17.1652 23.5588C17.0589 23.5148 16.9624 23.4504 16.8811 23.3691L8.13114 14.6191C8.04978 14.5378 7.98524 14.4413 7.94121 14.3351C7.89718 14.2288 7.87451 14.115 7.87451 14C7.87451 13.885 7.89718 13.7711 7.94121 13.6649C7.98524 13.5587 8.04978 13.4622 8.13114 13.3809L16.8811 4.63094C17.0453 4.46675 17.268 4.37451 17.5002 4.37451C17.7324 4.37451 17.9551 4.46675 18.1193 4.63094C18.2834 4.79512 18.3757 5.0178 18.3757 5.25C18.3757 5.48219 18.2834 5.70488 18.1193 5.86906L9.98723 14L18.1193 22.1309Z" fill="#212730"/>
</g>
</svg>
