<svg width="24" height="24" viewBox="0 0 24 24" fill="none" xmlns="http://www.w3.org/2000/svg">
<g id="CaretLeft">
<path id="Vector" d="M15.7496 4.49998V19.5C15.7497 19.6484 15.7058 19.7935 15.6234 19.917C15.541 20.0404 15.4238 20.1366 15.2867 20.1934C15.1496 20.2503 14.9987 20.2651 14.8531 20.2361C14.7076 20.2071 14.5739 20.1356 14.469 20.0306L6.96899 12.5306C6.89926 12.461 6.84394 12.3782 6.80619 12.2872C6.76845 12.1961 6.74902 12.0985 6.74902 12C6.74902 11.9014 6.76845 11.8038 6.80619 11.7128C6.84394 11.6217 6.89926 11.539 6.96899 11.4694L14.469 3.96936C14.5739 3.86435 14.7076 3.79282 14.8531 3.76383C14.9987 3.73485 15.1496 3.7497 15.2867 3.80651C15.4238 3.86333 15.541 3.95955 15.6234 4.08299C15.7058 4.20644 15.7497 4.35156 15.7496 4.49998Z" fill="#37383C" fill-opacity="0.61"/>
</g>
</svg>
